<svg width="484" height="128" viewBox="0 0 484 128" fill="none" xmlns="http://www.w3.org/2000/svg">
<path fill-rule="evenodd" clip-rule="evenodd" d="M8 0C3.58172 0 0 3.58172 0 8V120C0 124.418 3.58172 128 8 128H120C124.418 128 128 124.418 128 120V8C128 3.58172 124.418 0 120 0H8ZM31.9688 49.25C33.2812 50.5625 34.8542 51.2188 36.6875 51.2188C38.5417 51.2188 40.1354 50.5625 41.4688 49.25C42.8021 47.9375 43.4688 46.3542 43.4688 44.5C43.4688 42.7083 42.8021 41.1667 41.4688 39.875C40.1354 38.5625 38.5417 37.9062 36.6875 37.9062C34.8542 37.9062 33.2812 38.5625 31.9688 39.875C30.6771 41.1667 30.0312 42.7083 30.0312 44.5C30.0312 46.3542 30.6771 47.9375 31.9688 49.25ZM21.375 95.5C23.3542 97.0417 26.0417 97.8125 29.4375 97.8125C33.4583 97.8125 36.6458 96.6146 39 94.2188C41.375 91.8438 42.5625 88.4896 42.5625 84.1562V54.5312C40.6458 54.2396 38.6875 54.0938 36.6875 54.0938C34.5833 54.0938 32.6979 54.2396 31.0312 54.5312V84.75C31.0312 86.0208 30.8125 86.9271 30.375 87.4688C29.9375 88.0312 29.2188 88.3125 28.2188 88.3125C27.3854 88.3125 26.5833 88.0208 25.8125 87.4375C24.5417 88.25 23.4896 89.4375 22.6562 91C21.8021 92.5833 21.375 94.0833 21.375 95.5ZM95.125 56.75C92.6875 54.5417 88.9792 53.4375 84 53.4375C80.5625 53.4375 77.3021 54.25 74.2188 55.875C71.8021 54.25 68.4896 53.4375 64.2812 53.4375C62.3021 53.4375 60.375 53.625 58.5 54C56.625 54.375 55 54.8646 53.625 55.4688C52.25 56.0521 51.1042 56.6042 50.1875 57.125C49.2917 57.6458 48.5521 58.1458 47.9688 58.625V85C49.7396 85.2917 51.6562 85.4375 53.7188 85.4375C55.8021 85.4375 57.7292 85.2917 59.5 85V64.7188C60.75 64.0729 62.0208 63.75 63.3125 63.75C64.6667 63.75 65.7083 64.0833 66.4375 64.75C67.1875 65.4167 67.5625 66.5312 67.5625 68.0938V85C69.3333 85.2917 71.25 85.4375 73.3125 85.4375C75.375 85.4375 77.2917 85.2917 79.0625 85V66C79.0625 65.3958 79.0417 64.9479 79 64.6562C80.3125 64.0521 81.6562 63.75 83.0312 63.75C84.3854 63.75 85.4271 64.0833 86.1562 64.75C86.8854 65.4167 87.25 66.5312 87.25 68.0938V85C89.0208 85.2917 90.9479 85.4375 93.0312 85.4375C95.0938 85.4375 97.0104 85.2917 98.7812 85V66C98.7812 62.0417 97.5625 58.9583 95.125 56.75Z" fill="white"/>
<path d="M193.693 75.1138L213.207 98.0977C209.284 98.9023 204.942 99.3047 200.181 99.3047C194.95 99.3047 191.379 99.1706 189.468 98.9023L174.984 81.501V98.5C172.302 98.9694 169.267 99.2041 165.881 99.2041C162.662 99.2041 159.51 98.9694 156.426 98.5V31.1577C159.276 30.6548 162.293 30.4033 165.479 30.4033C168.496 30.4033 171.665 30.6548 174.984 31.1577V69.2295C181.79 64.0326 186.87 57.6118 190.223 49.9673C192.436 49.7661 195.621 49.6655 199.778 49.6655C203.735 49.6655 207.205 49.917 210.189 50.4199C207.339 59.4391 201.84 67.6704 193.693 75.1138ZM256.056 48.7603C259.375 48.7603 262.46 48.995 265.31 49.4644V94.2754C263.332 95.6165 260.029 96.9744 255.402 98.3491C250.809 99.6903 245.729 100.361 240.164 100.361C231.446 100.361 225.126 98.6174 221.203 95.1304C217.314 91.6099 215.369 86.6141 215.369 80.1431V49.4644C218.219 48.995 221.304 48.7603 224.623 48.7603C227.942 48.7603 231.027 48.995 233.877 49.4644V76.7734C233.877 79.5228 234.413 81.501 235.486 82.708C236.593 83.8815 238.437 84.4683 241.019 84.4683C243.5 84.4683 245.411 84.0659 246.752 83.2612V49.4644C249.602 48.995 252.703 48.7603 256.056 48.7603ZM282.963 50.269C286.852 48.6261 291.429 47.8047 296.693 47.8047C301.957 47.8047 305.863 48.2573 308.411 49.1626C308.076 55.9019 306.299 61.2161 303.08 65.1055C301.638 64.7031 300.113 64.502 298.503 64.502C296.089 64.502 294.078 64.854 292.468 65.5581V98.5C289.618 98.9694 286.517 99.2041 283.164 99.2041C279.845 99.2041 276.76 98.9694 273.91 98.5V55.751C276.056 53.7393 279.074 51.9119 282.963 50.269ZM331.848 100.461C326.785 100.461 322.242 99.8244 318.218 98.5503C314.195 97.2762 311.11 95.8177 308.964 94.1748C309.668 88.4079 311.865 84.3174 315.553 81.9033C321.219 85.2897 326.919 86.9829 332.652 86.9829C335.133 86.9829 336.374 86.195 336.374 84.6191C336.374 83.6803 335.754 82.9595 334.513 82.4565C333.306 81.9536 330.657 81.2327 326.567 80.2939C324.79 79.8581 323.264 79.439 321.99 79.0366C320.75 78.6343 319.341 78.0308 317.766 77.2261C316.223 76.3879 314.966 75.4491 313.994 74.4097C313.021 73.3703 312.2 71.9956 311.529 70.2856C310.859 68.5757 310.523 66.6478 310.523 64.502C310.523 60.9814 311.546 57.9639 313.591 55.4492C315.67 52.901 318.352 51.0234 321.638 49.8164C324.958 48.6094 328.696 48.0059 332.854 48.0059C341.806 48.0059 348.88 49.5314 354.077 52.5825C353.373 58.5171 351.345 62.6914 347.992 65.1055C346.181 64.1667 343.951 63.362 341.303 62.6914C338.654 61.9873 336.072 61.6353 333.558 61.6353C331.579 61.6353 330.154 61.8029 329.283 62.1382C328.444 62.4399 328.025 63.0267 328.025 63.8984C328.025 64.7702 328.595 65.4072 329.735 65.8096C330.875 66.2119 333.457 66.8154 337.48 67.6201C339.492 68.0225 341.219 68.4416 342.661 68.8774C344.136 69.2798 345.695 69.9001 347.338 70.7383C348.981 71.543 350.305 72.4818 351.311 73.5547C352.35 74.6276 353.205 76.0023 353.876 77.6787C354.547 79.3551 354.882 81.283 354.882 83.4624C354.882 88.7599 352.904 92.9175 348.947 95.9351C344.991 98.9526 339.291 100.461 331.848 100.461ZM382.241 100.461C377.178 100.461 372.635 99.8244 368.612 98.5503C364.588 97.2762 361.504 95.8177 359.358 94.1748C360.062 88.4079 362.258 84.3174 365.946 81.9033C371.613 85.2897 377.312 86.9829 383.046 86.9829C385.527 86.9829 386.768 86.195 386.768 84.6191C386.768 83.6803 386.147 82.9595 384.907 82.4565C383.7 81.9536 381.051 81.2327 376.96 80.2939C375.183 79.8581 373.658 79.439 372.384 79.0366C371.143 78.6343 369.735 78.0308 368.159 77.2261C366.617 76.3879 365.36 75.4491 364.387 74.4097C363.415 73.3703 362.593 71.9956 361.923 70.2856C361.252 68.5757 360.917 66.6478 360.917 64.502C360.917 60.9814 361.94 57.9639 363.985 55.4492C366.064 52.901 368.746 51.0234 372.032 49.8164C375.351 48.6094 379.09 48.0059 383.247 48.0059C392.199 48.0059 399.274 49.5314 404.471 52.5825C403.767 58.5171 401.738 62.6914 398.385 65.1055C396.575 64.1667 394.345 63.362 391.696 62.6914C389.048 61.9873 386.466 61.6353 383.951 61.6353C381.973 61.6353 380.548 61.8029 379.676 62.1382C378.838 62.4399 378.419 63.0267 378.419 63.8984C378.419 64.7702 378.989 65.4072 380.129 65.8096C381.269 66.2119 383.851 66.8154 387.874 67.6201C389.886 68.0225 391.612 68.4416 393.054 68.8774C394.529 69.2798 396.089 69.9001 397.731 70.7383C399.374 71.543 400.699 72.4818 401.705 73.5547C402.744 74.6276 403.599 76.0023 404.27 77.6787C404.94 79.3551 405.275 81.283 405.275 83.4624C405.275 88.7599 403.297 92.9175 399.341 95.9351C395.384 98.9526 389.685 100.461 382.241 100.461ZM421.47 44.1333C418.519 44.1333 415.988 43.0771 413.875 40.9648C411.797 38.8525 410.757 36.3044 410.757 33.3203C410.757 30.4368 411.797 27.9557 413.875 25.877C415.988 23.7646 418.519 22.7085 421.47 22.7085C424.454 22.7085 427.019 23.7646 429.165 25.877C431.31 27.9557 432.383 30.4368 432.383 33.3203C432.383 36.3044 431.31 38.8525 429.165 40.9648C427.019 43.0771 424.454 44.1333 421.47 44.1333ZM421.47 99.2041C418.251 99.2041 415.166 98.9694 412.216 98.5V49.4644C414.999 48.995 418.083 48.7603 421.47 48.7603C424.722 48.7603 427.823 48.995 430.774 49.4644V98.5C427.991 98.9694 424.89 99.2041 421.47 99.2041ZM475.333 81.9033C477.043 82.9092 478.653 84.6694 480.162 87.1841C481.704 89.6652 482.592 92.1296 482.827 94.5771C480.547 96.3206 478.083 97.6785 475.434 98.6509C472.785 99.6567 469.617 100.16 465.929 100.16C459.592 100.16 454.529 98.785 450.74 96.0356C446.951 93.2528 445.057 88.9946 445.057 83.2612V64.7031H436.809C436.373 62.1549 436.155 59.5565 436.155 56.9077C436.155 54.6278 436.373 52.1466 436.809 49.4644H445.057V37.6455C448.376 37.1426 451.528 36.8911 454.512 36.8911C457.664 36.8911 460.681 37.1426 463.565 37.6455V49.4644H479.659C480.195 51.979 480.463 54.4266 480.463 56.8071C480.463 59.3218 480.195 61.9538 479.659 64.7031H463.565V78.5337C463.565 80.5789 464.034 82.0877 464.973 83.0601C465.945 83.9989 467.471 84.4683 469.55 84.4683C471.461 84.4683 473.389 83.6133 475.333 81.9033Z" fill="white"/>
</svg>
